<svg xmlns="http://www.w3.org/2000/svg" xmlns:xlink="http://www.w3.org/1999/xlink" id="Layer_1" x="0px" y="0px" viewBox="0 0 160 70" style="enable-background:new 0 0 160 70;" xml:space="preserve"><style type="text/css">	.st0{fill:#EE7623;}	.st1{fill:#231F20;}</style><g>	<path class="st0" d="M135.6,8.1c0-1.8-1.5-3.2-3.3-3.2c-1.8,0-3.3,1.4-3.3,3.2c0,1.8,1.5,3.2,3.3,3.2c0.1,0,0.1,0,0.2,0  c-0.5,1.9-1.8,3.6-3.4,4.6l0.2,0.4C132.3,15,135.5,11.8,135.6,8.1L135.6,8.1C135.6,8.1,135.6,8.1,135.6,8.1"></path>	<path class="st0" d="M39.6,11.4c1.8,0,3.3-1.4,3.3-3.2c0-1.8-1.5-3.2-3.3-3.2c-1.8,0-3.3,1.4-3.3,3.2C36.3,9.9,37.8,11.4,39.6,11.4  "></path>	<path class="st0" d="M73.5,11.4c1.8,0,3.3-1.4,3.3-3.2c0-1.8-1.5-3.2-3.3-3.2c-1.8,0-3.3,1.4-3.3,3.2C70.2,9.9,71.7,11.4,73.5,11.4  "></path>	<path class="st0" d="M77.7,40.6c-0.3-0.1-0.7-0.2-1-0.4c-0.4-0.2-0.7-0.5-0.7-1V38V15.8H60.8v2.6h0.5c0.2,0,0.6,0,0.9,0.1  c0.5,0.2,0.6,0.6,0.7,1.1c0,0.6-0.1,1.2-0.4,1.7l-6,16.2l-5.4-15.4c-0.3-0.7-0.5-1.4-0.6-2.2c-0.1-0.4,0-0.8,0.2-1.1  c0.1-0.2,0.2-0.3,0.4-0.4c0.2-0.1,0.5-0.1,0.8-0.1h0.9v-2.6h-0.1h-1.1h-7.5h0H28.4h-0.8h-0.3v2.6h0.5c0.2,0,0.6,0,0.9,0.1  c0.5,0.2,0.6,0.6,0.7,1.1c0,0.6-0.1,1.2-0.4,1.7l-6,16.2l-5.4-15.4c-0.3-0.7-0.5-1.4-0.6-2.2c-0.1-0.4,0-0.8,0.2-1.1  c0.1-0.2,0.2-0.3,0.4-0.4c0.2-0.1,0.5-0.1,0.8-0.1h0.9v-2.6h-0.1h-1.1H9.5H8.7H8.3v2.6c0.2,0,0.4,0.1,0.7,0.1  c0.7,0.1,1.2,0.6,1.5,1.2l9.6,23.7h5.4L35,19.8c0.1-0.3,0.3-0.6,0.5-0.9c0.2-0.3,0.2-0.3,0.5-0.2c0.6,0.3,0.9,0.7,1,1.4  c0,0.3,0,0.7,0,1c0,5.1,0,10.8,0,15.9c0,0.6,0,1.3-0.1,1.9c-0.1,0.8-0.5,1.4-1.4,1.6c-0.5,0.1-1,0.3-1.5,0.4v2.6h11.3v-2.6  c-0.4-0.1-0.7-0.2-1-0.3c-0.3-0.1-0.7-0.2-1-0.4c-0.4-0.2-0.7-0.5-0.7-1c0-0.4-0.1-0.8-0.1-1.2c0-5.8,0-11.7,0-17.5  c0-0.6,0-1.2,0-1.9c0,0,0,0,0,0c0.8,0.1,1.3,0.6,1.6,1.2l9.3,23c0,0,0,0,0,0l0.3,0.7h5.5l0.8-2.3c0,0,0,0,0,0l0.5-1.1l8.1-20.3  c0.1-0.3,0.3-0.6,0.5-0.9c0.2-0.3,0.2-0.3,0.5-0.2c0.6,0.3,0.9,0.7,1,1.4c0,0.3,0,0.7,0,1c0,5.1,0,10.8,0,15.9c0,0.6,0,1.3-0.1,1.9  c0,0,0,0,0,0.1h0c-0.1,0.8-0.5,1.3-1.3,1.6c-0.5,0.1-1,0.3-1.5,0.4v2.6h11.2v-2.6C78.4,40.7,78,40.7,77.7,40.6"></path>	<path class="st0" d="M96.1,32.9c-0.2,0.7-0.5,1.4-0.8,2c-0.3,0.5-0.6,0.9-0.9,1.3c-0.1,0.1-0.1,0.2-0.2,0.3c0,0,0,0-0.1,0.1  c-0.7,0.8-2.2,2.7-5.2,2.9c-4.1,0.2-4.6-2.7-4.6-2.7c-0.4-1-0.3-2.1-0.1-3.1c0.1-0.6,0.3-1.1,0.6-1.6c0.6-1,1.4-1.7,2.5-2  c0.8-0.2,1.6-0.3,2.5-0.3c2,0,4.1,0,6.1,0h0.5C96.5,30.8,96.4,31.8,96.1,32.9 M151.6,33.6c-0.1-0.4-0.2-0.9-0.3-1.3  c-0.5-1.7-1.5-2.9-3-3.8c-0.9-0.5-1.9-0.9-2.9-1.2c-1.4-0.4-2.8-0.7-4.2-1c-0.7-0.2-1.4-0.3-2.1-0.6c-0.4-0.1-0.9-0.3-1.2-0.5  c-0.7-0.4-1.1-0.9-1.1-1.7c0-0.1,0-0.2,0-0.3c-0.1-0.9,0.1-1.9,0.7-2.7c0.5-0.6,1.2-1,2-1.2c0.8-0.2,1.6-0.3,2.4-0.4  c0.4,0,0.8,0,1.2,0.1c0.9,0.1,1.7,0.2,2.5,0.6c0.8,0.4,1.5,1.1,1.8,2c0.1,0.4,0.2,0.8,0.3,1.2h3.3v-6.6l-3.2-0.4l0,0  c-0.7-0.1-1.4-0.2-2.1-0.2c-0.9-0.1-2.4-0.2-3.3-0.3c-1.8-0.1-3.7-0.1-5.5,0.4c-3.3,0.9-4.8,3.5-5.3,4.8c-0.1,0.4-0.2,0.8-0.3,1.2  c-0.3,1.7-0.1,3.2,0.7,4.8c0.9,1.7,2.3,2.8,4.1,3.5c1.1,0.4,2.3,0.7,3.4,1c1.1,0.3,2.1,0.6,3.1,1c0.6,0.3,1.3,0.6,1.8,1  c0.7,0.5,1.3,1.2,1.6,2.1c0.2,0.6,0.2,1.2,0.1,1.8c-0.2,1.2-0.9,2.1-2,2.7c-0.7,0.4-1.5,0.6-2.2,0.7c-1.2,0.2-2.4,0.1-3.6-0.1  c-0.8-0.2-1.5-0.4-2.2-0.9c-0.9-0.6-1.3-1.5-1.6-2.4c-0.1-0.4-0.2-0.8-0.2-1.3H131v5.2c-0.2-0.1-0.4-0.1-0.6-0.2  c-0.4-0.1-0.7-0.3-1-0.5c-0.4-0.2-0.7-0.5-0.7-1c0,0,0-0.1,0-0.1c-0.1-0.6-0.1-1.1-0.1-1.7c0-3.9,0-7.9,0-11.8c0,0,0.2-6.3-1-7.8  c-0.4-0.5-0.9-1-1.5-1.3c-1.1-0.7-2.4-0.9-3.7-1c-0.9,0-1.9,0-2.8,0.2c-1.2,0.2-2.2,0.7-3.2,1.4c-0.5,0.4-1.1,0.8-1.5,1.2l0,0  c0,0,0,0,0,0c-0.5,0.5-1,0.9-1.4,1.4c0,0-0.1,0.1-0.1,0.1c-1.1,1.1-2.5,2.7-3.2,3.7c0-1,0-2,0-3.1h0v-4.6c-1,0-2,0-3,0c0,0,0,0,0,0  h-4.8v2.9h0.4c0.3,0,0.5,0.1,0.8,0.2c0.7,0.2,1.1,0.6,1.2,1.3c0.1,0.5,0.2,1,0.2,1.4c0,5,0,10,0,15c0,0.1,0,0.2,0,0.3v1.8  c0,0.8-0.7,1.5-1.5,1.5s-1.5-0.7-1.5-1.5l0-2v-0.6c0-4.1,0-8.2,0-12.4c0-0.9,0-1.7-0.2-2.6c-0.2-0.9-0.4-1.7-0.9-2.5  c-0.9-1.4-2.2-2.2-3.8-2.7c-1-0.3-2.1-0.5-3.2-0.6c-2-0.1-4,0-6.1,0.2c0,0-2.1,0.2-7.2,1.4v4.5c0,0,10.7-2.8,14.4-1.1  c0.8,0.7,1.3,1.4,1.4,2.4c0.1,1,0.1,1.9,0.1,2.9c0,0,0,0.1-0.1,0.1c-0.1,0-0.3,0-0.4,0c-1.3,0-2.5-0.1-3.8-0.1  c-1.3,0-2.5,0-3.8,0.1c-1.5,0.1-3,0.3-4.4,0.8c-1.6,0.5-3,1.5-4,2.8c-0.8,1.1-1.3,2.3-1.6,3.6c-0.2,1.1-0.2,2.1-0.2,3.2  c0,0.2,0,0.5,0.1,0.7l0,0c0,0,0,0,0,0.1c0,0.1,0,0.1,0,0.2c0,0.1,0.1,0.5,0.3,1.1c0.7,2.1,2.9,5.8,9,5.8c0.2,0,0.4,0,0.6,0  c0.1,0,0.2,0,0.3,0c5.4,0,8-3.7,8-3.7v3.2h5.2h0.1h0.2h3.4h7.7v-2.6c-0.4-0.1-0.7-0.2-1-0.3c-0.3-0.1-0.7-0.2-1-0.4  c-0.4-0.2-0.7-0.5-0.7-1l0-2.7c0-1.8,0-3.7,0-5.5c0,0,0,0,0,0c0-1.7,5.6-8.1,6.5-9c0.4-0.3,0.7-0.6,1.1-0.9c1.1-0.7,2.3-1,3.6-0.6  c0.9,0.3,1.4,0.9,1.5,1.9c0.1,0.7,0.1,1.5,0.1,2.2c0,4.2,0,8.4,0,12.5l0,0v6.5h10.6h0.4c1,0,1.7,0.1,2.7,0.3  c1.6,0.2,3.3,0.3,4.9,0.3c1.1,0,2.2-0.1,3.2-0.4c1-0.3,1.9-0.6,2.7-1.1c1.6-0.9,2.7-2.2,3.4-3.9c0.2-0.6,0.4-1.2,0.5-1.8  C151.7,36.1,151.7,34.2,151.6,33.6"></path>	<path class="st1" d="M32.3,61.4h1.4c0.6,0,1.1-0.1,1.4-0.4c0.3-0.3,0.5-0.7,0.5-1.2c0-0.5-0.2-0.9-0.5-1.2  c-0.3-0.3-0.8-0.4-1.4-0.4h-1.4V61.4z M33.5,62.3h-1.2V65h-1v-7.6h2.4c0.6,0,1.1,0.1,1.5,0.3c0.4,0.2,0.8,0.5,1,0.9  c0.2,0.4,0.4,0.8,0.4,1.3c0,0.6-0.2,1.1-0.5,1.5c-0.3,0.4-0.8,0.7-1.5,0.8l2.1,2.8h-1.2L33.5,62.3z"></path>	<polygon class="st1" points="46.3,58.2 42.6,58.2 42.6,60.7 46,60.7 46,61.6 42.6,61.6 42.6,64.1 46.3,64.1 46.3,65 41.6,65   41.6,57.3 46.3,57.3  "></polygon>	<path class="st1" d="M52.6,62.2h2.7l-1.3-3.7h0L52.6,62.2z M56.3,65l-0.7-1.9h-3.3L51.6,65h-1l2.8-7.6h1.1l2.8,7.6H56.3z"></path>	<polygon class="st1" points="62.8,64.1 66.3,64.1 66.3,65 61.8,65 61.8,57.3 62.8,57.3  "></polygon>	<polygon class="st1" points="81.5,58.2 77.8,58.2 77.8,60.7 81.2,60.7 81.2,61.6 77.8,61.6 77.8,64.1 81.5,64.1 81.5,65 76.8,65   76.8,57.3 81.5,57.3  "></polygon>	<path class="st1" d="M87.4,64.8c-0.4-0.2-0.8-0.5-1-0.9c-0.2-0.4-0.4-0.8-0.4-1.3h1c0.1,0.5,0.2,0.9,0.6,1.2  c0.3,0.3,0.7,0.4,1.2,0.4c0.5,0,0.9-0.1,1.2-0.4c0.3-0.3,0.5-0.6,0.5-1c0-0.3-0.1-0.6-0.4-0.8c-0.2-0.2-0.7-0.4-1.3-0.5l-0.7-0.2  c-1.4-0.3-2.1-1-2.1-2c0-0.4,0.1-0.8,0.3-1.2c0.2-0.3,0.5-0.6,0.9-0.8c0.4-0.2,0.8-0.3,1.4-0.3c0.8,0,1.4,0.2,1.9,0.6  c0.5,0.4,0.8,1,0.8,1.7h-1c-0.1-0.5-0.3-0.8-0.5-1.1c-0.3-0.2-0.7-0.3-1.1-0.3c-0.5,0-0.9,0.1-1.2,0.3c-0.3,0.2-0.4,0.5-0.4,0.9  c0,0.3,0.1,0.6,0.4,0.7c0.2,0.2,0.7,0.3,1.3,0.5l0.7,0.2c0.7,0.2,1.2,0.4,1.6,0.7c0.3,0.3,0.5,0.8,0.5,1.3c0,0.5-0.1,0.9-0.3,1.2  c-0.2,0.4-0.6,0.6-1,0.8c-0.4,0.2-0.9,0.3-1.4,0.3C88.3,65.1,87.8,65,87.4,64.8"></path>	<polygon class="st1" points="101.2,57.3 101.2,58.2 98.8,58.2 98.8,65 97.8,65 97.8,58.2 95.5,58.2 95.5,57.3  "></polygon>	<path class="st1" d="M106.2,62.2h2.7l-1.3-3.7h0L106.2,62.2z M109.9,65l-0.7-1.9h-3.3l-0.7,1.9h-1l2.8-7.6h1.1l2.8,7.6H109.9z"></path>	<polygon class="st1" points="119.5,57.3 119.5,58.2 117.2,58.2 117.2,65 116.2,65 116.2,58.2 113.9,58.2 113.9,57.3  "></polygon>	<polygon class="st1" points="128.7,58.2 125.1,58.2 125.1,60.7 128.4,60.7 128.4,61.6 125.1,61.6 125.1,64.1 128.7,64.1 128.7,65   124.1,65 124.1,57.3 128.7,57.3  "></polygon></g></svg>